# xmcd
#
# Track frame offsets:
#	150
#	580
#	19795
#	32790
#	49552
#	64309
#	81160
#	93403
#	111081
#	128866
#	148693
#	161647
#	176559
#	196197
#	212866
#	225111
#
# Disc length: 3155 seconds
#
# Revision: 0
# Processed by: cddbd v1.5.1PL2 Copyright (c) Steve Scherf et al.
# Submitted via: dBpowerAMP V4.0
#
DISCID=ce0c5110
DTITLE=Aino Trosell - På en öde ö i havet - CD-BOK 01/03
DYEAR=2004
DGENRE=CD-BOK
TTITLE0=01.01
TTITLE1=01.02
TTITLE2=01.03
TTITLE3=01.04
TTITLE4=01.05
TTITLE5=01.06
TTITLE6=01.07
TTITLE7=01.08
TTITLE8=01.09
TTITLE9=01.10
TTITLE10=01.11
TTITLE11=01.12
TTITLE12=01.13
TTITLE13=01.14
TTITLE14=01.15
TTITLE15=01.16
EXTD=
EXTT0=
EXTT1=
EXTT2=
EXTT3=
EXTT4=
EXTT5=
EXTT6=
EXTT7=
EXTT8=
EXTT9=
EXTT10=
EXTT11=
EXTT12=
EXTT13=
EXTT14=
EXTT15=
PLAYORDER=
